# AST/ASF file generated using VICON BodyLanguage
# -----------------------------------------------
:version 1.10
:name VICON
:units
  mass 1.0
  length 0.45
  angle deg
:documentation
   .ast/.asf automatically generated from VICON data using
   VICON BodyBuilder and BodyLanguage model FoxedUp or BRILLIANT.MOD
:root
   order TX TY TZ RX RY RZ
   axis XYZ
   position 0 0 0  
   orientation 0 0 0 
:bonedata
  begin
     id 1 
     name lhipjoint
     direction 0.440178 -0.822639 0.359871 
     length 2.53113 
     axis 0 0 0  XYZ
  end
  begin
     id 2 
     name lfemur
     direction 0.34202 -0.939693 0  
     length 7.88132  
     axis 0 0 20  XYZ
    dof rx ry rz
    limits (-160.0 20.0)
           (-70.0 70.0)
           (-60.0 70.0)
  end
  begin
     id 3 
     name ltibia
     direction 0.34202 -0.939693 0   
     length 8.43783   
     axis 0 0 20   XYZ
    dof rx
    limits (-10.0 170.0)
  end
  begin
     id 4 
     name lfoot
     direction 0.0886351 -0.243523 0.965837   
     length 2.63414   
     axis -90 7.62852e-016 20   XYZ
    dof rx rz
    limits (-45.0 90.0)
           (-70.0 20.0)
  end
  begin
     id 5 
     name ltoes
     direction 1.53703e-011 -4.21717e-011 1   
     length 1.31427   
     axis -90 7.62852e-016 20   XYZ
    dof rx
    limits (-90.0 20.0)
  end
  begin
     id 6 
     name rhipjoint
     direction -0.399779 -0.839773 0.367367   
     length 2.47948  
     axis 0 0 0  XYZ 
  end
  begin
     id 7 
     name rfemur
     direction -0.34202 -0.939693 0   
     length 7.74806   
     axis 0 0 -20   XYZ
    dof rx ry rz
    limits (-160.0 20.0)
           (-70.0 70.0)
           (-70.0 60.0)
  end
  begin
     id 8 
     name rtibia
     direction -0.34202 -0.939693 0   
     length 8.74432   
     axis 0 0 -20   XYZ
    dof rx
    limits (-10.0 170.0)
 end
 begin
     id 9 
     name rfoot
     direction -0.108514 -0.298139 0.948334   
     length 2.66102  
     axis -90 -7.62852e-016 -20   XYZ
    dof rx rz
    limits (-45.0 90.0)
           (-20.0 70.0)
  end
  begin
     id 10 
     name rtoes
     direction -1.53392e-011 -4.22077e-011 1   
     length 1.31983   
     axis -90 -7.62852e-016 -20   XYZ
    dof rx
    limits (-90.0 20.0)
  end
  begin
     id 11 
     name lowerback
     direction 0.0113257 0.999866 0.0118602   
     length 2.58694   
     axis 0 0 0   XYZ
    dof rx ry rz
    limits (-20.0 45.0)
           (-30.0 30.0)
           (-30.0 30.0)
  end
  begin
     id 12 
     name upperback
     direction -0.0164747 0.995193 -0.0965375   
     length 2.52368   
     axis 0 0 0   XYZ
    dof rx ry rz
    limits (-20.0 45.0)
           (-30.0 30.0)
           (-30.0 30.0)
  end
  begin
     id 13 
     name thorax
     direction -0.0194301 0.99433 -0.104552   
     length 2.56099   
     axis 0 0 0   XYZ
    dof rx ry rz
    limits (-20.0 45.0)
           (-30.0 30.0)
           (-30.0 30.0)
  end
  begin
     id 14 
     name lowerneck
     direction 0.0148543 0.995587 -0.092657   
     length 1.71582   
     axis 0 0 0   XYZ
    dof rx ry rz
    limits (-20.0 45.0)
           (-30.0 30.0)
           (-30.0 30.0)
  end
  begin
     id 15 
     name upperneck
     direction -0.0135467 0.993656 -0.111639   
     length 1.68937   
     axis 0 0 0   XYZ
    dof rx ry rz
    limits (-20.0 45.0)
           (-30.0 30.0)
           (-30.0 30.0)
  end
  begin
     id 16
     name head
     direction -0.00615349 0.999547 -0.029448  
     length 1.7462  
     axis 0 0 0   XYZ
    dof rx ry rz
    limits (-20.0 45.0)
           (-30.0 30.0)
           (-30.0 30.0)
  end
  begin
     id 17 
     name lclavicle
     direction 0.988267 0.149885 0.0293713  
     length 4.47222  
     axis 0 0 0   XYZ
    dof ry rz
    limits (-20.0 10.0)
           (0.0 20.0)
  end
  begin
     id 18 
     name lhumerus
     direction 1 -4.48986e-011 -1.14833e-027   
     length 5.37148   
     axis 180 -30 -90   XYZ
    dof rx ry rz
    limits (-60.0 90.0)
           (-90.0 90.0)
           (-90.0 90.0)
  end
  begin
     id 19
     name lradius
     direction 0.999998 0.00170963 -0.000987055   
     length 3.94212   
     axis 180 -30 -90   XYZ
    dof rx
    limits (-10.0 170.0)
  end
  begin
     id 20
     name lwrist
     direction 0.999998 7.53149e-005 -0.00194706   
     length 1.97106   
     axis 4.65056e-015 90 90   XYZ
    dof ry
    limits (-180.0 0.0)
 end
  begin
     id 21 
     name lhand
     direction 1 -4.48973e-011 -1.31746e-026   
     length 1.17917   
     axis 8.4065e-015 90 90   XYZ
    dof rx rz
    limits (-90.0 90.0)
           (-45.0 45.0)
  end
  begin
     id 22 
     name lfingers
     direction 1 -4.49107e-011 -2.63492e-026   
     length 0.950679   
     axis 1.6813e-014 90 90   XYZ
    dof rx
    limits (0.0 90.0)
  end
  begin
     id 23
     name lthumb
     direction 0.707107 -6.35048e-011 0.707107   
     length 1.36499   
     axis -90 45 2.85299e-015   XYZ
    dof rx rz
    limits (-45.0 45.0)
           (-45.0 45.0)
  end
  begin
     id 24 
     name rclavicle
     direction -0.996699 0.0642895 -0.0495725   
     length 4.62611  
     axis 0 0 0   XYZ 
    dof ry rz
    limits (-10.0 20.0)
           (-20.0 0.0)
  end
  begin
     id 25 
     name rhumerus
     direction -1 -4.48919e-011 -2.41059e-027  
     length 5.4981   
     axis 180 30 90   XYZ
    dof rx ry rz
    limits (-90.0 60.0)
           (-90.0 90.0)
           (-90.0 90.0)
  end
  begin
     id 26 
     name rradius
     direction -0.999999 0.00118101 -0.000681858   
     length 3.48381   
     axis 180 30 90   XYZ
    dof rx
    limits (-10.0 170.0)
  end
  begin
     id 27 
     name rwrist
     direction -0.999999 0.000321823 -0.00132288   
     length 1.7419   
     axis 4.65056e-015 -90 -90   XYZ
    dof ry
    limits (-180.0 0.0)
  end
  begin
     id 28
     name rhand
     direction -1 -4.49022e-011 -1.31746e-026   
     length 1.34932   
     axis 8.4065e-015 -90 -90   XYZ
    dof rx rz
    limits (-90.0 90.0)
           (-45.0 45.0)
  end
  begin
     id 29
     name rfingers
     direction -1 -4.49178e-011 -2.63492e-026   
     length 1.08785   
     axis 1.6813e-014 -90 -90   XYZ
    dof rx
    limits (0.0 90.0)
  end
  begin
     id 30
     name rthumb
     direction -0.707107 -6.34713e-011 0.707107   
     length 1.56195   
     axis -90 -45 -2.85299e-015   XYZ
    dof rx rz
    limits (-45.0 45.0)
           (-45.0 45.0)
  end
:hierarchy
  begin
    root lhipjoint rhipjoint lowerback
    lhipjoint lfemur
    lfemur ltibia
    ltibia lfoot
    lfoot ltoes
    rhipjoint rfemur
    rfemur rtibia
    rtibia rfoot
    rfoot rtoes
    lowerback upperback
    upperback thorax
    thorax lowerneck lclavicle rclavicle
    lowerneck upperneck
    upperneck head
    lclavicle lhumerus
    lhumerus lradius
    lradius lwrist
    lwrist lhand lthumb
    lhand lfingers
    rclavicle rhumerus
    rhumerus rradius
    rradius rwrist
    rwrist rhand rthumb
    rhand rfingers
  end

#!OML:ASF X:\für Bonn\!DataBase\2005_08_10_Bjorn_Final\c3d\bjorn.ASF
:FULLY-SPECIFIED
:DEGREES
16
root -0.510349 19.1299 3.557 -187.742 -17.405 180.156
lowerback 7.40628 1.42612 -5.45148
upperback 10.585 0.436173 -5.27399
thorax 6.963 -0.606148 -2.61049
lowerneck -8.09535 -9.43157 -2.58415
upperneck 17.8676 -15.852 10.9569
head 7.97153 -7.21408 2.37511
rclavicle -1.03368e-014 0
rhumerus -51.516 -40.0135 -59.4107
rradius 12.9965
rwrist 44.2482
rhand -1.1161 10.911
rfingers 7.12502
rthumb 24.5209 -17.539
lclavicle -1.03368e-014 0
lhumerus -3.31787 -15.2535 76.7783
lradius 49.7975
lwrist -22.4361
lhand -31.9514 -17.5579
lfingers 7.12502
lthumb -5.20185 12.3583
rfemur -24.4825 5.91531 14.0249
rtibia 68.7964
rfoot -9.45664 -3.333
rtoes -11.3389
lfemur 0.886344 2.40513 -19.2208
ltibia 26.1831
lfoot -10.4626 -16.6399
ltoes 8.93035
17
root -0.50827 19.1325 3.59679 -188.142 -17.6611 180.224
lowerback 8.15064 1.4449 -5.60336
upperback 10.8509 0.30876 -5.40585
thorax 6.83607 -0.716337 -2.67294
lowerneck -8.25882 -9.49138 -2.53677
upperneck 17.6197 -15.9191 11.1399
head 7.9372 -7.22549 2.41297
rclavicle -2.46493e-014 3.18055e-014
rhumerus -50.6121 -39.2647 -60.8083
rradius 13.2455
rwrist 43.3996
rhand -1.23977 11.0591
rfingers 7.12502
rthumb 24.4024 -17.407
lclavicle -2.46493e-014 3.18055e-014
lhumerus -1.62245 -15.334 76.2748
lradius 51.3264
lwrist -21.4747
lhand -32.7063 -17.6878
lfingers 7.12502
lthumb -5.93066 12.2092
rfemur -26.2843 6.21876 13.9806
rtibia 71.8626
rfoot -9.1723 -2.30781
rtoes -12.1255
lfemur 1.2188 2.28589 -19.1994
ltibia 26.0375
lfoot -10.2889 -16.6843
ltoes 8.56753
18
root -0.503906 19.1348 3.63608 -188.562 -17.9918 180.286
lowerback 8.91009 1.45139 -5.80694
upperback 11.1572 0.150367 -5.51869
thorax 6.74773 -0.851542 -2.68622
lowerneck -8.4166 -9.54999 -2.51187
upperneck 17.3047 -15.9666 11.3357
head 7.88108 -7.22964 2.46204
rclavicle 9.30312e-014 2.06736e-014
rhumerus -49.7445 -38.5689 -62.0965
rradius 13.4885
rwrist 42.6711
rhand -1.3824 11.2619
rfingers 7.12502
rthumb 24.2656 -17.2225
lclavicle 9.30312e-014 2.06736e-014
lhumerus 0.216437 -15.3004 75.8419
lradius 52.7616
lwrist -20.6128
lhand -33.3256 -17.8515
lfingers 7.12502
lthumb -6.5285 12.0278
rfemur -28.0671 6.46308 13.9066
rtibia 74.882
rfoot -8.91917 -1.17871
rtoes -12.878
lfemur 1.58475 2.0925 -19.1894
ltibia 25.8547
lfoot -10.0518 -16.7453
ltoes 8.40383
19
root -0.497742 19.1383 3.67473 -188.984 -18.4065 180.319
lowerback 9.69943 1.44447 -6.03108
upperback 11.476 -0.0414072 -5.66538
thorax 6.66033 -1.00765 -2.72172
lowerneck -8.55404 -9.59774 -2.47504
upperneck 16.941 -16.0042 11.578
head 7.80818 -7.22949 2.52667
rclavicle 1.90833e-014 -8.5875e-014
rhumerus -48.9536 -37.9492 -63.3058
rradius 13.6777
rwrist 42.0628
rhand -1.62014 11.4656
rfingers 7.12502
rthumb 24.0377 -17.0491
lclavicle 1.90833e-014 -8.5875e-014
lhumerus 2.13784 -15.239 75.4131
lradius 54.1551
lwrist -19.6704
lhand -33.6646 -17.7174
lfingers 7.12502
lthumb -6.85577 12.1516
rfemur -29.8453 6.63533 13.7764
rtibia 77.8448
rfoot -8.66823 -0.00291182
rtoes -13.9764
lfemur 1.96747 1.89373 -19.2077
ltibia 25.6393
lfoot -9.78693 -16.8543
ltoes 8.10935
20
root -0.48687 19.1455 3.71355 -189.411 -18.8629 180.399
lowerback 10.4869 1.42818 -6.27146
upperback 11.8239 -0.255829 -5.78551
thorax 6.61011 -1.18099 -2.71841
lowerneck -8.75282 -9.63705 -2.41751
upperneck 16.5768 -16.0253 11.7986
head 7.74159 -7.21912 2.57987
rclavicle 5.00937e-014 5.08889e-014
rhumerus -48.0874 -37.24 -64.616
rradius 13.9134
rwrist 41.2151
rhand -1.78006 11.6294
rfingers 7.12502
rthumb 23.8843 -16.9054
lclavicle 5.00937e-014 5.08889e-014
lhumerus 4.1522 -15.1164 75.0195
lradius 55.5774
lwrist -18.5989
lhand -33.8021 -17.4786
lfingers 7.12502
lthumb -6.98854 12.386
rfemur -31.643 6.79192 13.6942
rtibia 80.7382
rfoot -8.41762 1.20963
rtoes -15.3933
lfemur 2.35268 1.64582 -19.1729
ltibia 25.3887
lfoot -9.50047 -16.9767
ltoes 7.86883
